<svg id="Laag_1" data-name="Laag 1" xmlns="http://www.w3.org/2000/svg" viewBox="0 0 173.7 173.7"><defs><style>.cls-1{fill:#99c210;}.cls-2{fill:#fff;}</style></defs><title>100-proc-natuurlijk</title><circle class="cls-1" cx="86.85" cy="86.85" r="86.85"/><path class="cls-2" d="M567,3037c-13.63,0-26.24-4-35.5-11.34l-0.16-.13,0.06-.19a60.91,60.91,0,0,1,4.92-10.7c8.29-13.6,22.36-23.76,38.62-27.87l0.22-.06,0.11,0.2a52.08,52.08,0,0,0,3.72,5.93l0.26,0.36-0.43.09c-16.44,3.59-28.36,11.78-36.44,25a49.72,49.72,0,0,0-2.5,4.6l0.29,0.17a54,54,0,0,0,27,6.8h0a62.39,62.39,0,0,0,33.86-9.75c1.73-1.13,3.24-2.25,4.7-3.34,4.25-3.16,7.61-5.65,12.76-5.65a20,20,0,0,1,5.05.71A102.56,102.56,0,0,1,598.17,2981a293,293,0,0,1-16.92-38.75c0.66,4.88,2.89,16.62,10.15,32.88,9.61,21.52,23,34,23.18,34.14l0.56,0.52-0.76,0c-0.27,0-26.67-.9-39.05-32.45-8.43-21.52-1.26-43.73,2.22-45.12a2.94,2.94,0,0,1,1.06-.15c6,0,36.17,9.52,45.49,28.57,8.53,17.42,5.29,33.54,2.39,39.64a8,8,0,0,0-.83,5.64,0.92,0.92,0,0,0,.36.52c0.81,0.36,17.51,9.36,18.22,9.75l0.08,0,0,0.09c0,0.1,1.09,2.44-.94,6.19-2.32,4.32-4.75,4.36-4.85,4.36h-0.07l-10.87-5.46a40.6,40.6,0,0,0-4.11-2.16,14.33,14.33,0,0,0-4.64-.86c-3.84,0-6.54,2.12-9.67,4.57-1.31,1-2.67,2.09-4.25,3.13C594.38,3033,580.55,3037,567,3037h0Zm-24.32-15.44a82,82,0,0,1,23.75-15.08,84.41,84.41,0,0,1,19.85-5.31l0.13,0,0.1,0.09c1.48,1.4,3.16,2.87,5.27,4.65l0.57,0.48-0.75,0a84,84,0,0,0-24.35,5.1c-16.83,6.06-24.15,10.47-24.23,10.51Z" transform="translate(-501.2 -2897.65)"/><path class="cls-2" d="M578.61,2932.33c6.47,0,36.22,10,45.23,28.41,9.6,19.6,4,36,2.39,39.39s-1.14,6.19-.32,6.54,18.2,9.74,18.2,9.74,1,2.27-.93,5.93c-2.25,4.18-4.53,4.21-4.6,4.21h0l-10.8-5.43a40.31,40.31,0,0,0-4.15-2.17,14.65,14.65,0,0,0-4.73-.88c-5.53,0-8.62,4.17-14.08,7.74A70.27,70.27,0,0,1,567,3036.67c-12.83,0-25.5-3.52-35.32-11.27a60.08,60.08,0,0,1,4.9-10.64c8.57-14.07,22.69-23.76,38.45-27.74a52.7,52.7,0,0,0,3.74,6c-15.35,3.35-28.06,11.11-36.63,25.17a50.36,50.36,0,0,0-2.63,4.87l0.52,0.3a54.35,54.35,0,0,0,27.17,6.84,63.1,63.1,0,0,0,34-9.79c6.78-4.44,10.5-8.94,17.3-8.94a21.31,21.31,0,0,1,6.38,1.1,101.45,101.45,0,0,1-26.5-31.67,292,292,0,0,1-17.73-41.1s0.65,13.56,10.44,35.48,23.25,34.24,23.25,34.24-26.34-.53-38.79-32.27c-8.21-21-1.43-43.35,2.06-44.74a2.74,2.74,0,0,1,1-.13m7.73,69.08c1.59,1.5,3.34,3,5.28,4.66a84.39,84.39,0,0,0-24.44,5.12c-17.07,6.15-24.28,10.54-24.28,10.54a81,81,0,0,1,23.65-15,84.63,84.63,0,0,1,19.78-5.29m-7.73-69.66a3.22,3.22,0,0,0-1.17.17c-4.15,1.66-10.51,24.74-2.38,45.49,6.5,16.56,16.82,24.55,24.34,28.34a38.08,38.08,0,0,0,15,4.29l1.52,0-1.12-1c-0.13-.12-13.53-12.59-23.11-34a131.67,131.67,0,0,1-9.65-29.78,289,289,0,0,0,15.9,35.9,103.21,103.21,0,0,0,24.54,30.15,19,19,0,0,0-3.9-.43c-5.25,0-8.64,2.52-12.93,5.71-1.46,1.08-3,2.2-4.68,3.33a62.11,62.11,0,0,1-33.71,9.7,53.68,53.68,0,0,1-26.88-6.76l-0.06,0c0.73-1.5,1.5-2.92,2.37-4.33,8-13.19,19.89-21.34,36.26-24.91l0.86-.19-0.52-.71a52,52,0,0,1-3.7-5.9l-0.21-.4-0.44.11c-16.33,4.12-30.47,14.33-38.8,28a61.24,61.24,0,0,0-5,10.76l-0.13.38,0.32,0.25c9.31,7.35,22,11.4,35.68,11.4s27.45-4,38.09-11c1.59-1,2.95-2.11,4.27-3.14,3.21-2.52,5.75-4.51,9.49-4.51a14.06,14.06,0,0,1,4.55.84,40,40,0,0,1,4,2.12l10.84,5.45,0.12,0.06h0.13c0.29,0,2.76-.13,5.12-4.52,2.09-3.87,1-6.34.94-6.45l-0.08-.17-0.17-.09c-0.71-.38-17.42-9.4-18.24-9.76-0.34-.2-1-2.47.61-5.77,0.35-.72,8.33-18-2.39-39.89-9.37-19.15-39.7-28.73-45.75-28.73h0Zm7.93,69-0.27,0a84.75,84.75,0,0,0-19.92,5.33,82.33,82.33,0,0,0-23.84,15.14l0.7,0.91c0.07,0,7.38-4.44,24.17-10.49a83.66,83.66,0,0,1,24.27-5.08l1.49-.06-1.14-1c-2.11-1.78-3.79-3.25-5.26-4.64l-0.2-.19h0Z" transform="translate(-501.2 -2897.65)"/></svg>