<svg id="Laag_2" data-name="Laag 2" xmlns="http://www.w3.org/2000/svg" viewBox="0 0 188.2 158.07"><defs><style>.cls-1{fill:#fff;stroke:#b3b3b3;stroke-linecap:round;stroke-linejoin:round;stroke-width:2px;fill-rule:evenodd;}</style></defs><title>hond-home</title><path class="cls-1" d="M766.65,402.11c5.81,1.13,12.69-1.35,17.61-.26,1.65,1.89,0,4.66,0,7-0.18,8.62-4.31,9.89-11.15,12.95-3.65,1.64-6.65,3.92-9.59,5.18-1,3.24-.56,6.12-0.77,9.32-0.11,1.87-1.18,3.37-1.54,5.18-0.87,4.27-.94,9.55-2.33,14-1.32,4.25-4.45,8.5-4.66,11.65-0.2,3,.24,6.34-1.18,9.07-2.85,5.39-3,9.74-7.23,14.74-2.38,2.81-2.86,5.51-6.34,7.56-0.87,4.17-3.5,9.81-4,15.47-0.76,8.83-.44,20.74-1.52,28.67,1.23-.17,2.4.75,3.29,1.34,1.66,1.12,1.31,2.61-1.6,3.18,3-.7,3.32-0.1,4.82,2.46-2,5.37-11.51,4.48-16.29,2.7-1.16-2.74.14-6.45-.15-10-2.08-1.78-2.57-8.41-2.86-11.45-0.53-6.06,0-5.12.16-11.92,0.07-3.17-.66-6.3-1-9.07s1.06-7.33.57-10.48c-4.34.18-11.77-5.28-15.66-6.33-14.5.65-23.53-3.21-35.77-6.55-2.09,7.71-6.4,17.49-11,22.85-4.22,4.91-9.92,8-15.12,12-1.28,5.1,1,14.32,2.66,18.15,5.05,0.43,6.23,1.23,5,5.87a16.61,16.61,0,0,1-4.4.48c3.06,1.23,4.6,3.44.74,6.24-5.17,1.21-7.94,1.47-12.45-.26-1.94-7.63-.35-15.44-0.74-23-0.17-3.15-1.62-6.95-.52-9.84,1.45-3.84,3.19-5.56,5.14-8.9,3.87-6.67-.83-13.07-2.84-18.38-1.57-4.09-2.26-12.4-1.31-17.77-5.94,1.43-7.74,4.82-11.22,10.89-3,5.33-2.63,5.15-5,10.08-1.1,2.29-3.45,7.83-6.1,10.21-1.89,1.7-6.82,8.24-8.71,8.24-1.68,0-4.53-.27-4.68-0.75-0.73-2.56,3.08-6.49,4.42-8.29a28.63,28.63,0,0,0,3.73-5.78,74.73,74.73,0,0,0,4.06-9c1.25-3.84,3.18-6.31,4.1-8.16,2.52-5.15,3.37-9.11,7.49-12.8a82.08,82.08,0,0,1,10.59-8.47c4-2.58,8.48-4.81,12.44-7.26,0.94-.58,1.67-1.53,2.6-2.08,7.85-4.63,20.25-5.88,31.78-5,5.61,0.43,9.9.85,16.49,1,2.65,0.08,9.21-.58,11.58-1.79,5.81-3,10.07-3.71,13.43-9,1.92-3,2.72-7.28,4.92-10.63,1.36-2.05,3.79-3.57,4.92-5.69,2.3-4.34,3.17-9.22,5.43-12.94,3.39-5.57,10.89-9.89,19.67-9.07C761.33,398.15,764.87,398.06,766.65,402.11Z" transform="translate(-597.8 -396.61)"/></svg>