<svg id="Laag_1" data-name="Laag 1" xmlns="http://www.w3.org/2000/svg" viewBox="0 0 173.7 173.7"><defs><style>.cls-1{fill:#99c210;}.cls-2{fill:#d2e19b;}.cls-3{fill:#fff;}</style></defs><title>hond-opgroeien</title><circle class="cls-1" cx="86.85" cy="86.85" r="86.85"/><path class="cls-2" d="M572.44,1302.17a78.93,78.93,0,0,0,25.14,21.67,55.91,55.91,0,0,1-11.77-23.15C582.41,1300.62,575.69,1301,572.44,1302.17Z" transform="translate(-502.16 -1196.09)"/><path class="cls-2" d="M590.56,1262.69l8,2.46-12.29-35.32-28.75,22.58c2.44,1,4.9,1.4,7.33,2.37-4.23,10.08-3.86,19.37-.7,29.66a101.49,101.49,0,0,1,21-5.74A46.24,46.24,0,0,1,590.56,1262.69Z" transform="translate(-502.16 -1196.09)"/><path class="cls-3" d="M626.29,1249.29a22.61,22.61,0,0,0,5.13-3.27c2-1.86,3.65-1.24,4.42.9,0,0,2.63,4.2,2,7.85s-4.2,9.24-11,12.52c-6.19,3-6.57,14.8-6.54,17.27,0,5-.27,12.47-4.94,16.92-3.91,3.72-5.75,19-5.75,19s5-.46,6.65,1.15c1,1-1,6.41-2.92,6.41H602.6a0.64,0.64,0,0,1-.79-0.67c0-1.63.13-5.26,0.11-8.45-0.07-8.54-.92-14.18-4.55-14.76-8.19-1.3-23.18-1-28.79,2.91-1,.68-6.34,5.25-4.5,9,1.08,1.93,2.13,4.21,3.48,4.43,0,0,5.85-.78,6.72.43,0.46,0.65-.82,7.27-2.88,7.27,0,0-8.06.37-8.19,0-2.51-7.59-11.52-11.22-10.16-13.78,5.19-9.76-.23-13.08,2.9-19.57,0,0-20.87-2.37-14.7-18.33,0,0-1.63,16.77,15.67,9a128.73,128.73,0,0,1,39.64-10.21c5.8-.56,9.08-17.87,11.15-21.69,1.48-2.74,5.75-5.13,8.14-6C618.43,1246.7,621.48,1244.94,626.29,1249.29Z" transform="translate(-502.16 -1196.09)"/></svg>