<svg id="Laag_1" data-name="Laag 1" xmlns="http://www.w3.org/2000/svg" viewBox="0 0 173.7 173.7"><defs><style>.cls-1{fill:#99c210;}.cls-2,.cls-3,.cls-4,.cls-5,.cls-6{fill:#fff;}.cls-3{opacity:0.5;}.cls-4{opacity:0.7;}.cls-5{opacity:0.9;}.cls-6{opacity:0.3;}</style></defs><title>hoog-vetgehalte</title><circle class="cls-1" cx="86.85" cy="86.85" r="86.85"/><path class="cls-2" d="M193.93,1266.15a9.1,9.1,0,0,1-2.55,6.53,8.35,8.35,0,0,1-6.28,2.65,10.09,10.09,0,0,1-3.94-.8,10.76,10.76,0,0,1-3.37-2.26l-7.19-7.2v16a9.62,9.62,0,1,1-19.24,0v-16l-8.26,7.2a12.62,12.62,0,0,1-3.39,2.3,8.81,8.81,0,0,1-3.49.76,7.46,7.46,0,0,1-5.75-2.73,9.73,9.73,0,0,1-1.56-10.41,9.56,9.56,0,0,1,2.4-3.2l29.66-26.44L190.66,1259a10.1,10.1,0,0,1,2.44,3.28A9.4,9.4,0,0,1,193.93,1266.15Z" transform="translate(-94.34 -1196.09)"/><circle class="cls-3" cx="219.4" cy="1321.68" r="4.25" transform="translate(-474.84 -1072.36) rotate(-17.18)"/><circle class="cls-4" cx="205" cy="1324.25" r="6.02" transform="translate(-475.93 -1076.65) rotate(-17.16)"/><ellipse class="cls-5" cx="187.2" cy="1318.71" rx="8.09" ry="8.1" transform="translate(-475.19 -1082.1) rotate(-17.17)"/><circle class="cls-2" cx="168.07" cy="1306.14" r="10.07" transform="translate(-472.33 -1088.3) rotate(-17.17)"/><circle class="cls-6" cx="228.4" cy="1313.97" r="3.01" transform="translate(-472.09 -1070.08) rotate(-17.17)"/></svg>