<svg id="Laag_1" data-name="Laag 1" xmlns="http://www.w3.org/2000/svg" viewBox="0 0 174.33 174.33"><defs><style>.cls-1{fill:#99c210;}.cls-2{fill:#fff;}</style></defs><title>ideeen</title><circle class="cls-1" cx="87.17" cy="87.17" r="87.17"/><path class="cls-2" d="M170.7,3054.87H144.57C151,3062,165.92,3061,170.7,3054.87Z" transform="translate(-70.12 -2904.17)"/><path class="cls-2" d="M169.62,3049l-6.14-.29a0.11,0.11,0,0,1,0-.21h0s0.62-.13,1.7-0.28,2.63-.37,4.47-0.51c0.92-.08,1.92-0.19,3-0.24s2.16-.17,3.3-0.2c1,0,1.95-.11,2.95-0.15v-5.82c-3.59,0-7-.06-9.74-0.16l-6.14-.29a0.11,0.11,0,0,1,0-.21h0s0.62-.13,1.7-0.28,2.63-.37,4.47-0.51c0.92-.08,1.92-0.19,3-0.24s2.16-.17,3.3-0.2,2.26-.15,3.43-0.17v-1.88a4.49,4.49,0,0,0-4.48-4.48H141.24a4.49,4.49,0,0,0-4.08,2.65l0.77,0.05c1.14,0.09,2.33.13,3.52,0.25s2.4,0.2,3.61.27,2.41,0.2,3.6.29,2.35,0.19,3.48.23c2.25,0.12,4.36.23,6.18,0.26,0.91,0,1.75,0,2.5.06h1.94c0.54,0,1,0,1.27,0h0.48a0.11,0.11,0,0,1,0,.21l-1.66.36c-1.06.21-2.58,0.48-4.42,0.67a75.44,75.44,0,0,1-13.56.07c-2.8-.23-5.58-0.56-8.13-0.92v5.51c0.4,0,.8,0,1.21.08,1.14,0.09,2.33.13,3.52,0.25s2.4,0.2,3.61.27,2.41,0.2,3.6.29,2.35,0.19,3.48.23c2.25,0.12,4.36.23,6.18,0.26,0.91,0,1.75,0,2.5.06h1.94c0.54,0,1,0,1.27,0h0.48a0.11,0.11,0,0,1,0,.21l-1.66.36c-1.06.21-2.58,0.48-4.42,0.67a75.44,75.44,0,0,1-13.56.07c-2.82-.23-5.61-0.57-8.18-0.92v3.06a4.49,4.49,0,0,0,4.48,4.48H174.4a4.48,4.48,0,0,0,4.22-3C175.3,3049.17,172.16,3049.08,169.62,3049Z" transform="translate(-70.12 -2904.17)"/><path class="cls-2" d="M162,2990.75h-7.87c0.47,6.82,1.12,13.52,1.35,20.23,0.22,6.29.07,12.53,0,18.92h5C160,3016.78,159.69,3003.74,162,2990.75Z" transform="translate(-70.12 -2904.17)"/><path class="cls-2" d="M177,2979.66a3.64,3.64,0,0,0-4.91-1.54c-3,1.61-3.43,4.73-4.39,8.09,2.29-.19,4.22-0.19,6.1-0.54A4.21,4.21,0,0,0,177,2979.66Z" transform="translate(-70.12 -2904.17)"/><path class="cls-2" d="M143.14,2977.83a3.44,3.44,0,0,0-4.26,1.42,4.29,4.29,0,0,0,3,6.41,61,61,0,0,0,6.41.58,21.35,21.35,0,0,0-2.2-5.63A8,8,0,0,0,143.14,2977.83Z" transform="translate(-70.12 -2904.17)"/><path class="cls-2" d="M200.6,2946.88c-5.56-7.74-13.32-12.51-22.15-15.62a62.79,62.79,0,0,0-37.08-1.49c-10,2.55-18.85,7.23-25.56,15.29-6,7.22-8.57,15.44-6.76,24.83,1,5.22,3.74,9.56,6.71,13.83a119.89,119.89,0,0,1,12.9,22.77,35.53,35.53,0,0,1,3.11,12.44,24.83,24.83,0,0,0,.67,4.87c0.87,3.71,4.17,6.06,8.49,6.09l9.87,0c0.12-2.31.36-7.24,0.4-9.71,0.17-9.48,0-19-1.73-28.33a1.31,1.31,0,0,0-1.49-1.35c-1.81,0-3.63-.18-5.44-0.35-7-.63-10.47-7.07-7.06-13.11a7,7,0,0,1,8.78-3,10.2,10.2,0,0,1,3.87,3.26,46.19,46.19,0,0,1,3.92,7.46c0.46,1,.82,1.54,2,1.49,2.44-.1,4.88-0.1,7.32,0,1.28,0.05,1.78-.4,2.31-1.58,1.23-2.71,2.3-5.88,4.1-8.21a7.69,7.69,0,0,1,8-2.69c3.34,0.7,5.63,4,5.66,7.93s-2.33,7.27-6.18,8.06a35.08,35.08,0,0,1-7.07.72c-1.82,0-1.92.56-2.18,2.27a157.87,157.87,0,0,0-1.55,28.34c0.09,3,.25,5.83.39,8.8l9.08,0c4.68,0,8.44-2.5,8.82-7.67,0.15-2,.36-4,0.68-6a48.29,48.29,0,0,1,4.28-12.88A158.28,158.28,0,0,1,201,2981.22C208.59,2970.18,208.39,2957.71,200.6,2946.88Z" transform="translate(-70.12 -2904.17)"/></svg>