<svg id="Laag_1" data-name="Laag 1" xmlns="http://www.w3.org/2000/svg" viewBox="0 0 173.7 173.7"><defs><style>.cls-1{fill:#99c210;}.cls-2{fill:#fff;}</style></defs><title>kip</title><circle class="cls-1" cx="86.85" cy="86.85" r="86.85"/><path class="cls-2" d="M1750.15,1067.81l-3.62-2.52a4.72,4.72,0,0,0-2.9-5.94c0.09-1.94-1.49-1.5-1.49-1.5,0-1.81-1.12-1.95-1.95-.84-1.12-2.09-2.51-1.81-2.79-.14-1.33-2.27-6.28-1.84-3.68,4-5.61,3.81-8.64,12.26-12.19,19.82-4.47,9.48-26.49,1.11-39.32,2.79-18.68-20.07-24.49-14.68-18-8.63,0,0-4.57,4.24,1.25,10.59,0,0-1.32,5.49,4.25,9.39,0,0-2.85,5.94,4.11,8.45,0,0-3.63,2.61,2.5,5.39,0,0-2.22,2.61,2.51,5.39,0,0-1.63,2.15,2.51,5.39a27,27,0,0,0,17.07,6c2,5.53,4.09,9.3,7.74,9.87l1.25,8.66s-4.17,1-6,3.49c6.83-2.09,15.06-.7,18.54,0-3.63-3.07-9.77-3.49-9.77-3.49l-0.69-9c3.82-1.53,5.82-9.68,6.65-14.11a98.58,98.58,0,0,0,13.14-7.6c14.5-9.75,12.22-28.91,10.77-37.78,1.95,0.65,4.92.38,4.53-7.57Z" transform="translate(-1619.05 -1007.15)"/></svg>