<svg id="Laag_1" data-name="Laag 1" xmlns="http://www.w3.org/2000/svg" viewBox="0 0 174.65 174.65"><defs><style>.cls-1{fill:#99c210;}.cls-2{fill:#fff;}</style></defs><title>nederlands</title><circle class="cls-1" cx="87.32" cy="87.32" r="87.32"/><path class="cls-2" d="M619.92,3227.83l-24-20.44a4.83,4.83,0,0,1-.55-6.81l3.14-3.75-6.09-5.09L563,3226.47c-1.55,10.16-2.76,18-2.76,18a2.54,2.54,0,0,0,2.61,2.92h19.19V3237c0-11.28,8.07-11.26,9.15-11.26s9.14,0,9.14,11.26v10.33h19.52a2.59,2.59,0,0,0,2.62-2.58,2,2,0,0,0-.07-0.54s-1.06-7-2.51-16.42" transform="translate(-503.97 -3100.79)"/><path class="cls-2" d="M639.61,3213.79l-25.15-21.31c-0.91-6-1.59-10.35-1.74-11.33a21.81,21.81,0,0,0-3.55-9.25l-7.93,9.38-3.32-2.83,10.89-12.85,5,4.21a3.2,3.2,0,0,0,2.08.76h0.27a3.16,3.16,0,0,0,2.19-1.13l22.36-26.38a3.26,3.26,0,0,0-.38-4.53l-9.58-8.12a3.06,3.06,0,0,0-2.07-.76,3.28,3.28,0,0,0-2.47,1.12l-27.84,32.88a21.43,21.43,0,0,0-16.41,1l-3.76-3.18,4.22-5A3.24,3.24,0,0,0,582,3152l-26.41-22.36a3.21,3.21,0,0,0-2.08-.74h-0.24a3.18,3.18,0,0,0-2.2,1.13l-8.12,9.58a3.23,3.23,0,0,0,.37,4.54l41.7,35.33-2.89,3.41-10-8.51a21.52,21.52,0,0,0-2.12,6.81c-0.08.5-.47,3-1,6.75a3.31,3.31,0,0,0-1.87-.58,3.17,3.17,0,0,0-2.44,1.12l-22.36,26.39a3.24,3.24,0,0,0,.37,4.54l9.59,8.11a3.23,3.23,0,0,0,2.08.76h0.26a3.26,3.26,0,0,0,2.2-1.14L592,3185.55l12.81,10.85-4.23,5a3.19,3.19,0,0,0,.38,4.52l26.37,22.35a3.25,3.25,0,0,0,2.09.76h0.26a3.24,3.24,0,0,0,2.18-1.13l8.12-9.57a3.18,3.18,0,0,0-.37-4.53" transform="translate(-503.97 -3100.79)"/></svg>