<svg id="Laag_1" data-name="Laag 1" xmlns="http://www.w3.org/2000/svg" viewBox="0 0 166.22 166.22"><defs><style>.cls-1{fill:#99c210;}.cls-2{fill:#fff;}</style></defs><title>dierproefvrij</title><circle class="cls-1" cx="83.11" cy="83.11" r="83.11"/><path class="cls-2" d="M313.55,2996.85a36.61,36.61,0,0,1-4.66-15c-1.66-20.3,27.13-40.27,43.78-16.84,11.17-23.05,56.8-34.42,66.06-3.41,2.33,7.84,2.45,16.24-1.6,26.29,6.64-10,8.51-22.78,5.17-33.07-9.74-29.87-56-23.84-68.9,2.76-19.2-27-52.42-4-50.48,19.42,2.11,25.65,22.21,39.87,42.83,48.66-15.61-8.12-27.25-18.69-32.19-28.8" transform="translate(-283.07 -2901.63)"/><ellipse class="cls-2" cx="357.25" cy="2985.92" rx="8.92" ry="13.08" transform="translate(-2361.8 -1679.05) rotate(-47.28)"/><ellipse class="cls-2" cx="354.23" cy="3010.4" rx="8.92" ry="13.67" transform="translate(-2614.32 -1296.99) rotate(-55.66)"/><ellipse class="cls-2" cx="374.49" cy="2973.84" rx="8.01" ry="12.31" transform="translate(-1445.74 -2500.94) rotate(-23.68)"/><ellipse class="cls-2" cx="397.27" cy="2976.65" rx="8.54" ry="13.79" transform="translate(-1311.97 -2567.77) rotate(-20.75)"/><path class="cls-2" d="M374.49,3030.31c3,8.12,15.42,9.42,22.39,2.89,8.7-8.15,9.37-7.37,14.17-10.17,7.07-4.11,7.89-15.22,2.37-20.61C399.54,2988.87,357.52,2984.86,374.49,3030.31Z" transform="translate(-283.07 -2901.63)"/></svg>