<svg id="Laag_2" data-name="Laag 2" xmlns="http://www.w3.org/2000/svg" viewBox="0 0 158.62 153.38"><defs><style>.cls-1{fill:#fff;stroke:#b3b3b3;stroke-miterlimit:10;stroke-width:2px;}</style></defs><title>kat-home</title><path class="cls-1" d="M1348.69,502.26s3.67-4.81,3.54-5.94-4.93-6.57-4.93-6.57S1347.81,497.84,1348.69,502.26Z" transform="translate(-1229.57 -371.16)"/><path class="cls-1" d="M1386.53,379.38c-2.7-.17-14.32,7.92-14.32,7.92-8.09-.67-15.51.68-16.51,0.68s-7.75-6.24-11.8-6.4-4,7.42-2,12.81S1342,403,1341.2,407s-4.72,11.12-4.72,11.12-12.63.34-16.85,1.52-9.6,0-9.6,0c-5.09-1.43-11.89-2-18.39-2.17h0a129,129,0,0,0-14.62.27c-2.27.13-4,.28-5,0.38-4.72.5-4.89-1.35-5.06-4.72,0-.19,0-0.39,0-0.59,0-1.13.13-2.51,0.12-4.4,0-3.79-.51-9.67-3.47-19.95-4.72-16.34-20.56-18.54-26.62-14.66-4.56,2.92-6.36,9.45-6.32,14.66a16.72,16.72,0,0,0,.6,4.65c1.51,5.05,6.74,1.52,6.74-1.69s1-13.31,7.58-8.25,7.24,13.48,7.75,23.59c0.09,1.86.13,3.55,0.12,5.13-0.07,7-1.23,11.8-3.83,19.88a30.41,30.41,0,0,0-1.37,9.49c0,6.86,2,13.09,3.9,15.88,2.52,3.78,6.22,10.07,6.41,12.24a1.36,1.36,0,0,1,0,.29c-0.34,1.69-2.36,1.51-2.36,5.22s-2.7,4.38-2.7,4.38a5.37,5.37,0,0,0-3.34,5.62c0.15,6.37,6.92,15.86,10.08,20.6,4.38,6.57,8.42,3.54,11,3.54s1.18,0,6.74,4.21,11.12,2.19,13.15.17a1.83,1.83,0,0,0,.55-1.36c0.07-2.07-3-4.76-5.61-5.31-3.2-.67-8.26-9.44-9.6-11.46a0.73,0.73,0,0,1-.1-0.41c0.25-2.92,10.67-12.72,12.4-14a2.25,2.25,0,0,1,.51-0.29,14.27,14.27,0,0,1,2.25-.26c1.21,0,3,0,5.88.12l-0.07-.22c8.81,0.07,21.37.77,22.94,0.89,2.36,0.17,4,2.36,5.9,5.22s12.81,27.64,15.84,33.19,6.74,3.71,12,3.54,5.05-2.36,3.71-5.05-0.5-6.91-.5-6.91c5.22-8.93,6.23-19.37,4.38-24.6s-0.84-7.42-.84-7.42c13.31-11.63,20.56-35.89,20.73-44.31s-2.86-5.22,3.37-18.37-2.19-16.68-2-21.57S1389.22,379.55,1386.53,379.38Zm-37.83,122.88c-0.88-4.42-1.39-12.51-1.39-12.51s4.8,5.43,4.93,6.57S1348.69,502.26,1348.69,502.26Z" transform="translate(-1229.57 -371.16)"/></svg>